<svg xmlns="http://www.w3.org/2000/svg" xmlns:xlink="http://www.w3.org/1999/xlink" viewBox="0 0 220 38.97"><defs><style>.cls-1{fill:url(#linear-gradient);}</style><linearGradient id="linear-gradient" x1="238.58" y1="93.83" x2="239.58" y2="93.83" gradientTransform="matrix(47.09, 16.47, 21.96, -35.32, -13301.15, -606.8)" gradientUnits="userSpaceOnUse"><stop offset="0" stop-color="#5106ff"/><stop offset="1" stop-color="#61cbf2"/></linearGradient></defs><g id="Layer_2" data-name="Layer 2"><g id="Layer_1-2" data-name="Layer 1"><g id="_8736ca96-2ddf-4d0d-abb3-4781fdadc12d" data-name="8736ca96-2ddf-4d0d-abb3-4781fdadc12d"><path d="M68.75,6.69,65,9.67l.34.58h0q1.78-1.46,1.77,4.91h0q-.21,12.08.08,13.89h0a5.16,5.16,0,0,0,2,3.26h0l2.92-2.53v-.67h0q-1.55,1.07-1.88-3.06h0A106.35,106.35,0,0,1,70,14.69h0l8.75,12h0a20,20,0,0,0,.17,2.61h0a5,5,0,0,0,1.57,3h0l3-2.55-.08-.64h0c-.88.74-1.43-.27-1.63-3h0a88.48,88.48,0,0,1-.14-10h0V13.45l.05-3.78h0a4.35,4.35,0,0,0-1.23-3.06h0L76.74,9.47l.31.9h0q1.67-1.8,1.69,3.5h0l0,8L70,10.14h0a3.55,3.55,0,0,0-1.23-3.45Zm25.33,8.53h0a6.56,6.56,0,0,0-5.58,1.85h0a10.39,10.39,0,0,0-3.34,5.45h0a8.89,8.89,0,0,0,.45,5.77h0A7,7,0,0,0,90,32.11h0q2.61.87,5.44-1.23h0q2.8-2.11,3.11-3.76h0L98,26.67h0c-1.53,2.19-3,3.24-4.49,3.17h0a6.07,6.07,0,0,1-3.28-1h0A6.88,6.88,0,0,1,88.53,27h0l5.33-3.53h0q4-2.5,3.62-5.16h0C97.22,16.55,96.08,15.52,94.08,15.22Zm-6.81,6h0A4.8,4.8,0,0,1,88.7,18h0a3.07,3.07,0,0,1,3.11-1.09h0a3.23,3.23,0,0,1,2.33,2.27h0A2.77,2.77,0,0,1,94,22h0c-.54.65-2.52,1.95-6,3.87h0A10,10,0,0,1,87.43,24h0A13.27,13.27,0,0,1,87.27,21.25Zm26,4.77-.67-.78-3.28,3.92-6.79-13.74h0c-.47-.55-1.07-.51-1.8.11h0l-2.41,1.85.33.56h0c.53-.86,1.34-.32,2.45,1.63h0l6.31,12.74h.78l1.69-2.19Zm1.77-9.34h0l.45.34h0c.93-1.29,2.21-1.07,3.81.67h0a5.59,5.59,0,0,1,1.63,5.5h0a15.63,15.63,0,0,1-3.37,6h0L110.8,15.42h0c-.46-.55-1.06-.51-1.79.11h0l-2.44,1.85.36.56h0q.79-1.29,2.44,1.63h0l6.32,12.74h.78l1.69-2.19h0A75.13,75.13,0,0,0,122.81,24h0a6,6,0,0,0,.62-6.09h0q-1.38-3.19-3.84-3.93h0C117.92,13.53,116.42,14.42,115.07,16.68Zm15.71-8.87-2.44,1.88h0c.9-.15,1.2,1.69.9,5.5h0l-1.6.09L125,17.91l.45.76h0A4,4,0,0,1,129,17.49h0q-.36,10.19,0,11.7h0a7.21,7.21,0,0,0,2,3.09h0a54.61,54.61,0,0,1,4.83-3.87h0l-.23-.9h0q-3.65,2.52-3.92,0h0a78.26,78.26,0,0,1,0-9.91h2.33l1.77-2-.14-.39-3.82.08V10.25h0a3.91,3.91,0,0,0-1.12-2.44Zm13.64,7h0a23.12,23.12,0,0,0-4.58,3.7h0A10,10,0,0,0,138,21.65h0a8.37,8.37,0,0,0-.19,4h0a7.94,7.94,0,0,0,2.8,4.6h0q2.42,2.22,3.87,2.22h0c1,0,2.51-.94,4.6-2.87h0a17.88,17.88,0,0,0,2.3-2.55h0a7.55,7.55,0,0,0,1.44-3h0a7.74,7.74,0,0,0-.2-3.48h0a9.38,9.38,0,0,0-2.75-4.09h0a5.89,5.89,0,0,0-5.44-1.66Zm-1,2.27h0c1.48-.33,3.09.58,4.85,2.75h0q2.61,3.29,2.05,5.59h0a6.35,6.35,0,0,1-2.38,3.73h0Q146,30.51,144,28.83h0a16.12,16.12,0,0,1-3.29-3.65h0a5.53,5.53,0,0,1-.36-4.77h0Q141.19,17.55,143.38,17.07Zm22-10.43h0a6.81,6.81,0,0,0-4.82,1.76h0A18.5,18.5,0,0,0,156.87,13h0a16.51,16.51,0,0,0-2.13,5.94h0a11.77,11.77,0,0,0,.37,5.81h0a13.71,13.71,0,0,0,2.52,4.52h0a8.9,8.9,0,0,0,3.9,2.72h0a6.23,6.23,0,0,0,4.52-.08h0q2.19-.9,4.57-4.24h0l-.76-.79h0q-3.78,3.9-7.6,1.6h0a10.91,10.91,0,0,1-5-6.87h0a11.15,11.15,0,0,1,.64-8.11h0c1.22-2.37,2.86-3.76,4.94-4.15h0c2.06-.39,3.44-.09,4.15.92h0c.71,1,.8,1.76.25,2.25h0l.31.31L170.14,11h0c.28-.74,0-1.64-.81-2.69h0A4.74,4.74,0,0,0,165.4,6.64Zm13.53,8.16h0a21.9,21.9,0,0,0-4.55,3.7h0a9.73,9.73,0,0,0-1.88,3.15h0a8.8,8.8,0,0,0-.17,4h0a7.85,7.85,0,0,0,2.78,4.6h0q2.44,2.22,3.9,2.22h0c1,0,2.5-.94,4.57-2.87h0a17.88,17.88,0,0,0,2.3-2.55h0a6.92,6.92,0,0,0,1.43-3h0a8,8,0,0,0-.16-3.48h0a9.74,9.74,0,0,0-2.75-4.09h0a6,6,0,0,0-5.47-1.66Zm-1,2.27h0c1.45-.33,3.06.58,4.82,2.75h0q2.64,3.29,2.08,5.59h0a6.45,6.45,0,0,1-2.42,3.73h0q-1.82,1.37-3.9-.31h0a16,16,0,0,1-3.31-3.65h0a5.68,5.68,0,0,1-.36-4.77h0Q175.7,17.55,177.92,17.07ZM202.49,6.5h0L199.8,8.26h0c.79,1.5,1.1,4,.95,7.61h0a4.84,4.84,0,0,0-2.77-.79h0a9.8,9.8,0,0,0-2.92.79h0a11.55,11.55,0,0,0-3.45,2.41h0a8.27,8.27,0,0,0-2.25,4.63h0A8.49,8.49,0,0,0,190.82,29h0q2,3.18,4,3.34h0c1.32.13,3.35-1.2,6.08-4h0a6.32,6.32,0,0,0,1.18,4.13h0l2.78-2.22h0q-1.51-1.29-1.21-11.78h0Q204,8,202.49,6.5Zm-6.84,10.82h0a3.46,3.46,0,0,1,4.21,2.78h0l.92-.81-.05,7.52h0a5.82,5.82,0,0,1-2.67,2.64h0c-1.29.69-2.67-.06-4.12-2.25h0a9.63,9.63,0,0,1-1.86-6.37h0A3.71,3.71,0,0,1,195.65,17.32Zm19.89-2.1h0a6.6,6.6,0,0,0-5.61,1.85h0a10.39,10.39,0,0,0-3.34,5.45h0a8.83,8.83,0,0,0,.45,5.77h0a7.1,7.1,0,0,0,4.4,3.82h0q2.61.87,5.42-1.23h0c1.89-1.41,2.93-2.66,3.14-3.76h0l-.59-.45h0c-1.53,2.19-3,3.24-4.49,3.17h0a5.88,5.88,0,0,1-3.25-1h0A7.1,7.1,0,0,1,210,27h0l5.31-3.53h0c2.69-1.67,3.91-3.39,3.64-5.16h0Q218.54,15.67,215.54,15.22Zm-6.82,6h0A4.71,4.71,0,0,1,210.15,18h0a3,3,0,0,1,3.09-1.09h0a3.3,3.3,0,0,1,2.36,2.27h0a2.87,2.87,0,0,1-.17,2.86h0c-.56.65-2.55,1.95-6,3.87h0a8.44,8.44,0,0,1-.62-1.93h0A15.26,15.26,0,0,1,208.72,21.25Z"/></g><g id="_5b569397-cb83-4f87-a1b7-2f4b9453adb6" data-name="5b569397-cb83-4f87-a1b7-2f4b9453adb6"><path class="cls-1" d="M25.88,0,19.49,38.46l-.11.51h6.7L32.48.51l.1-.51ZM16.24,5.89,14.51,7l-13,8.12L0,16v6.9l1.52.91,13,8.12,1.73,1.12V25.38L6.8,19.49l9.44-5.89Zm19.48,0V13.6l9.44,5.89-9.44,5.89v7.71L37.45,32l13-8.12L52,22.94V16l-1.52-.92L37.45,7Z"/></g></g></g></svg>